<?xml version="1.0" encoding="utf-8"?>
<!-- Generator: Adobe Illustrator 22.0.1, SVG Export Plug-In . SVG Version: 6.00 Build 0)  -->
<svg version="1.1" id="svg--favicon-monochrome" xmlns="http://www.w3.org/2000/svg" xmlns:xlink="http://www.w3.org/1999/xlink"
	 x="0px" y="0px" viewBox="0 0 739.463 739.463" style="enable-background:new 0 0 739.463 739.463;" xml:space="preserve">
<style type="text/css">
	.st0{fill:#154734;}
	.st1{fill:#9E7C2C;}
</style>
<path class="st0" d="M639.011,739.463H100.452C44.974,739.463,0,694.489,0,639.011V100.452C0,44.974,44.974,0,100.452,0h538.558
	c55.478,0,100.452,44.974,100.452,100.452v538.558C739.463,694.489,694.489,739.463,639.011,739.463z"/>
<g>
	<path class="st1" d="M167.381,202.043c12.268,21.304,25.812,8.772,50.807,16.236C206.164,200.091,189.006,215.401,167.381,202.043z
		"/>
	<path class="st1" d="M147.022,175.825c12.274,21.273,25.858,8.762,50.853,16.224C185.804,173.864,168.652,189.161,147.022,175.825z
		"/>
	<path class="st1" d="M238.258,244.535c-12.024-18.167-29.182-2.869-50.771-16.199C199.679,249.612,213.264,237.11,238.258,244.535z
		"/>
	<path class="st1" d="M266.78,539.212c0.041-0.037,0.081-0.065,0.122-0.094l97.925-126.036l-8.7,0.152L275.44,517.057l-24.913-1.393
		l-24.664,76.346L266.78,539.212z"/>
	<path class="st1" d="M208.009,205.149c-12.065-18.167-29.182-2.869-50.807-16.225C169.429,210.228,183.055,197.715,208.009,205.149
		z"/>
	<path class="st1" d="M228.409,231.398c-12.111-18.179-29.223-2.888-50.853-16.246C189.83,236.465,203.414,223.933,228.409,231.398z
		"/>
	<path class="st1" d="M501.94,244.535c24.954-7.425,38.539,5.077,50.807-16.199C531.123,241.667,514.006,226.369,501.94,244.535z"/>
	<path class="st1" d="M410.791,342.744c1.723,1.164,4.843,1.816,7.018,1.816l144.26-184.978c0.859-1.45,0.448-3.449-1.067-4.499
		c-1.56-1.032-3.781-0.701-4.889,0.727c0,0-8.122,10.458-20.517,26.411c9.357-14.587-8.538-24.752-2.338-46.377
		c-1.398,1.354-2.546,2.663-3.573,3.932l-40.628,52.352c-11.74,14.899,2.912,23.312,3.405,45.523
		C453.39,287.891,410.791,342.744,410.791,342.744z"/>
	<path class="st1" d="M562.597,215.152c-21.585,13.358-38.697-1.933-50.767,16.246C536.825,223.933,550.41,236.465,562.597,215.152z
		"/>
	<path class="st1" d="M572.858,202.043c-21.666,13.358-38.783-1.952-50.848,16.236C547.005,210.815,560.589,223.347,572.858,202.043
		z"/>
	<path class="st1" d="M322.39,344.56c2.175,0,5.255-0.652,7.019-1.816c0,0-42.605-54.853-81.672-105.094
		c0.493-22.211,15.145-30.624,3.446-45.523l-40.714-52.352c-0.981-1.269-2.13-2.578-3.527-3.932
		c6.241,21.625-11.74,31.79-2.338,46.377c-12.395-15.952-20.522-26.411-20.522-26.411c-1.108-1.428-3.324-1.759-4.844-0.727
		c-1.601,1.051-1.926,3.049-1.149,4.499L322.39,344.56z"/>
	<path class="st1" d="M347.999,413.451c-62.095,1.26-109.456,7.371-109.456,11.784c0,4.007,38.62,8.99,91.974,10.752
		L347.999,413.451z"/>
	<path class="st1" d="M543.803,330.041c-2.872-0.125-3.324-4.528-4.925-9.217c-2.831-8.07-10.465-13.63-21.137-11.547
		c-21.833,4.284-9.107,24.145-9.194,24.004c-0.452-4.34,12.929-10.04,18.759-1.468c8.62,12.759-2.505,31.541-36.241,25.423
		c-24.949-4.509-23.145-15.667-23.76-23.955v-0.037c5.784-1.337,10.094-6.168,10.094-11.927c0-6.801-5.992-12.305-13.336-12.305
		c-7.349,0-13.341,5.504-13.341,12.305c0,4.321,2.424,8.126,6.073,10.343l-0.041,0.153c-5.047,20.742-67.345,31.485-66.318-15.108
		c0.366-15.952,21.915-23.908,34.885-12.199c7.674-13.745-1.479-26.371-17.239-28.569c-14.734-2.037-18.429,7.986-23.679,3.078
		c-2.709-2.557,5.047-13.29,4.391-17.543c-2.257-13.109-18.759-25.28-18.759-25.28s-16.166,12.171-18.423,25.28
		c-0.661,4.253,7.303,15.214,4.35,17.543c-5.626,4.528-8.95-5.114-23.643-3.078c-15.76,2.198-24.913,14.824-17.239,28.569
		c12.97-11.709,34.519-3.754,34.885,12.199c1.067,46.593-61.313,35.851-66.318,15.108c-0.041-0.038-0.041-0.094-0.041-0.094
		c3.608-2.275,6.073-6.081,6.073-10.402c0-6.801-5.992-12.305-13.336-12.305c-7.349,0-13.341,5.504-13.341,12.305
		c0,5.759,4.31,10.59,10.052,11.927v0.028c-0.615,8.297,1.235,19.455-23.719,23.964c-33.736,6.118-44.896-12.664-36.241-25.423
		c5.829-8.572,19.206-2.872,18.758,1.468c-0.081,0.141,12.599-19.72-9.234-24.004c-10.632-2.083-18.265,3.477-21.096,11.547
		c-1.641,4.69-2.053,9.093-4.925,9.217c-6.937,0.246-12.517-27.004-38.208-23.093c0,0,24.049,31.75,47.895,70.216
		c12.924-10.988,86.515-19.523,163.836-19.523c77.275,0,151.065,8.535,164.034,19.523c23.806-38.466,47.814-70.216,47.814-70.216
		C556.32,303.036,550.781,330.287,543.803,330.041z"/>
	<polygon class="st1" points="238.258,586.725 299.896,551.526 287.383,523.244 	"/>
	<path class="st1" d="M542.365,192.049c24.994-7.462,38.539,5.049,50.807-16.224C571.547,189.161,554.435,173.864,542.365,192.049z"
		/>
	<path class="st1" d="M532.19,205.149c24.949-7.435,38.579,5.079,50.807-16.225C561.367,202.28,544.255,186.982,532.19,205.149z"/>
	<path class="st1" d="M211.007,383.662c6.891,11.51,14.484,24.874,20.517,36.667c5.708-7.683,70.592-13.461,138.598-13.461
		c61.313,0,131.656,5.656,138.634,13.09c6.073-11.781,13.91-24.787,20.847-36.297c-13.132-10.864-81.59-19.305-159.481-19.305
		C292.222,364.357,224.099,372.798,211.007,383.662z M257.052,402.805c-7.059,0-12.766-5.248-12.766-11.734
		c0-6.47,5.707-11.718,12.766-11.718c6.978,0,12.64,5.248,12.64,11.718C269.692,397.557,264.03,402.805,257.052,402.805z
		 M483.146,379.353c7.059,0,12.68,5.248,12.68,11.718c0,6.487-5.621,11.734-12.68,11.734c-7.019,0-12.68-5.248-12.68-11.734
		C470.466,384.601,476.128,379.353,483.146,379.353z M387.646,385.661c0,8.924-7.842,16.159-17.524,16.159
		c-9.646,0-17.488-7.235-17.488-16.159c0-8.915,7.842-16.14,17.488-16.14C379.804,369.521,387.646,376.746,387.646,385.661z"/>
	<path class="st1" d="M483.146,397.615c3.898,0,7.1-2.937,7.1-6.545c0-3.638-3.202-6.545-7.1-6.545s-7.06,2.907-7.06,6.545
		C476.087,394.678,479.248,397.615,483.146,397.615z"/>
	<path class="st1" d="M359.409,385.67c0,5.485,4.798,9.928,10.713,9.928c5.946,0,10.749-4.443,10.749-9.928
		c0-5.466-4.802-9.918-10.749-9.918C364.207,375.752,359.409,380.204,359.409,385.67z"/>
	<path class="st1" d="M257.012,384.525c-3.939,0-7.1,2.907-7.1,6.545c0,3.608,3.161,6.545,7.1,6.545c3.939,0,7.06-2.937,7.06-6.545
		C264.071,387.432,260.951,384.525,257.012,384.525z"/>
	<polygon class="st1" points="440.42,551.526 502.067,586.725 452.983,523.222 	"/>
	<path class="st1" d="M370.163,416.426l-0.127,0.134l-15.511,19.948c5.128,0.075,10.342,0.122,15.598,0.122
		c5.291,0,10.546-0.047,15.633-0.122l-15.47-19.948L370.163,416.426z"/>
	<path class="st1" d="M464.881,517.057l-80.645-103.822l-8.701-0.134l97.884,126.017c0.041,0.028,0.122,0.056,0.163,0.085
		l40.917,52.807l-24.664-76.346L464.881,517.057z"/>
	<path class="st1" d="M501.981,425.235c0-4.441-47.402-10.571-109.7-11.793l17.564,22.545
		C463.199,434.224,501.981,429.223,501.981,425.235z"/>
</g>
<g>
</g>
<g>
</g>
<g>
</g>
<g>
</g>
<g>
</g>
<g>
</g>
<g>
</g>
<g>
</g>
<g>
</g>
<g>
</g>
<g>
</g>
<g>
</g>
<g>
</g>
<g>
</g>
<g>
</g>
</svg>
