<?xml version="1.0" encoding="utf-8"?>
<!-- Generator: Adobe Illustrator 22.0.1, SVG Export Plug-In . SVG Version: 6.00 Build 0)  -->
<svg version="1.1" id="Layer_1" xmlns="http://www.w3.org/2000/svg" xmlns:xlink="http://www.w3.org/1999/xlink" x="0px" y="0px"
	 viewBox="0 0 458.368 456.168" style="enable-background:new 0 0 458.368 456.168;" xml:space="preserve">
<style type="text/css">
	.st0{fill:#1F1F18;}
	.st1{fill:#AB7D1E;}
</style>
<path class="st0" d="M0.13,159.948C-0.073,159.65-0.011,159.765,0.13,159.948L0.13,159.948z"/>
<g>
	<path class="st1" d="M12.218,39.982C33.847,53.319,51,38.021,63.071,56.207C38.076,48.744,24.491,61.255,12.218,39.982"/>
	<path class="st1" d="M52.683,92.494c21.589,13.33,38.747-1.968,50.771,16.199C78.46,101.268,64.874,113.769,52.683,92.494"/>
	<path class="st1" d="M22.397,53.082c21.625,13.356,38.742-1.943,50.807,16.225C48.251,61.872,34.625,74.385,22.397,53.082"/>
	<path class="st1" d="M32.577,66.2c21.625,13.358,38.782-1.952,50.807,16.236C58.39,74.972,44.846,87.504,32.577,66.2"/>
	<path class="st1" d="M42.752,79.309c21.63,13.358,38.742-1.933,50.853,16.246C68.61,88.09,55.026,100.622,42.752,79.309"/>
	<path class="st1" d="M112.932,101.807c0.493-22.211,15.145-30.624,3.446-45.523L75.664,3.932C74.683,2.663,73.535,1.354,72.137,0
		c6.241,21.625-11.74,31.79-2.338,46.377C57.404,30.425,49.277,19.966,49.277,19.966c-1.108-1.428-3.324-1.759-4.844-0.727
		c-1.601,1.051-1.926,3.049-1.149,4.499l144.3,184.978c2.175,0,5.255-0.652,7.019-1.816
		C194.604,206.901,151.999,152.048,112.932,101.807"/>
	<path class="st1" d="M458.368,39.982c-21.625,13.336-38.737-1.961-50.807,16.224C432.555,48.744,446.099,61.255,458.368,39.982"/>
	<path class="st1" d="M417.943,92.494c-21.625,13.33-38.742-1.968-50.807,16.199C392.09,101.268,405.675,113.769,417.943,92.494"/>
	<path class="st1" d="M448.193,53.082c-21.63,13.356-38.742-1.943-50.807,16.225C422.335,61.872,435.965,74.385,448.193,53.082"/>
	<path class="st1" d="M438.054,66.2c-21.666,13.358-38.783-1.952-50.848,16.236C412.201,74.972,425.785,87.504,438.054,66.2"/>
	<path class="st1" d="M427.793,79.309c-21.585,13.358-38.697-1.933-50.767,16.246C402.021,88.09,415.606,100.622,427.793,79.309"/>
	<path class="st1" d="M357.658,101.807c-0.493-22.211-15.145-30.624-3.405-45.523L394.88,3.932c1.026-1.269,2.175-2.578,3.573-3.932
		c-6.2,21.625,11.694,31.79,2.338,46.377c12.395-15.952,20.517-26.411,20.517-26.411c1.108-1.428,3.329-1.759,4.889-0.727
		c1.515,1.051,1.927,3.049,1.067,4.499L283.005,208.717c-2.175,0-5.296-0.652-7.018-1.816
		C275.986,206.901,318.586,152.048,357.658,101.807"/>
	<path class="st1" d="M246.067,249.827c0,5.485-4.802,9.928-10.749,9.928c-5.916,0-10.713-4.443-10.713-9.928
		c0-5.466,4.798-9.918,10.713-9.918C241.264,239.909,246.067,244.361,246.067,249.827"/>
	<path class="st1" d="M129.267,255.227c0,3.608-3.12,6.545-7.06,6.545c-3.939,0-7.1-2.937-7.1-6.545c0-3.638,3.161-6.545,7.1-6.545
		C126.146,248.682,129.267,251.589,129.267,255.227"/>
	<path class="st1" d="M355.442,255.227c0,3.608-3.202,6.545-7.1,6.545c-3.898,0-7.06-2.937-7.06-6.545
		c0-3.638,3.162-6.545,7.06-6.545C352.24,248.682,355.442,251.589,355.442,255.227"/>
	<path class="st1" d="M235.318,228.514c-77.9,0-146.023,8.441-159.115,19.304c6.891,11.51,14.484,24.874,20.517,36.667
		c5.707-7.683,70.592-13.461,138.598-13.461c61.312,0,131.656,5.656,138.634,13.09c6.073-11.781,13.91-24.787,20.847-36.297
		C381.666,236.955,313.209,228.514,235.318,228.514 M122.248,266.962c-7.059,0-12.766-5.248-12.766-11.735
		c0-6.47,5.707-11.718,12.766-11.718c6.978,0,12.64,5.248,12.64,11.718C134.888,261.714,129.226,266.962,122.248,266.962
		 M235.318,265.976c-9.646,0-17.488-7.235-17.488-16.159c0-8.915,7.842-16.14,17.488-16.14c9.682,0,17.524,7.225,17.524,16.14
		C252.842,258.742,245,265.976,235.318,265.976 M348.342,266.962c-7.019,0-12.68-5.248-12.68-11.735
		c0-6.47,5.661-11.718,12.68-11.718c7.059,0,12.68,5.248,12.68,11.718C361.022,261.714,355.401,266.962,348.342,266.962"/>
	<path class="st1" d="M399.352,241.321c23.806-38.466,47.814-70.216,47.814-70.216c-25.65-3.911-31.189,23.34-38.167,23.093
		c-2.872-0.125-3.324-4.528-4.925-9.217c-2.831-8.07-10.465-13.63-21.137-11.547c-21.833,4.284-9.107,24.145-9.194,24.004
		c-0.452-4.34,12.929-10.04,18.759-1.468c8.62,12.759-2.505,31.541-36.241,25.423c-24.949-4.509-23.145-15.667-23.76-23.955V197.4
		c5.784-1.337,10.094-6.168,10.094-11.927c0-6.801-5.992-12.305-13.336-12.305c-7.349,0-13.341,5.504-13.341,12.305
		c0,4.321,2.424,8.126,6.073,10.343l-0.041,0.153c-5.047,20.742-67.345,31.485-66.318-15.108
		c0.366-15.952,21.915-23.908,34.885-12.199c7.674-13.745-1.479-26.371-17.239-28.569c-14.734-2.037-18.429,7.986-23.679,3.078
		c-2.709-2.557,5.047-13.29,4.391-17.543c-2.257-13.109-18.759-25.28-18.759-25.28s-16.166,12.171-18.423,25.28
		c-0.661,4.253,7.303,15.213,4.35,17.543c-5.626,4.528-8.95-5.114-23.643-3.078c-15.76,2.198-24.913,14.824-17.239,28.569
		c12.97-11.709,34.519-3.754,34.885,12.199c1.067,46.593-61.313,35.851-66.318,15.108c-0.041-0.038-0.041-0.094-0.041-0.094
		c3.608-2.275,6.073-6.08,6.073-10.402c0-6.801-5.992-12.305-13.336-12.305c-7.349,0-13.341,5.504-13.341,12.305
		c0,5.759,4.31,10.59,10.052,11.927v0.028c-0.615,8.297,1.235,19.455-23.719,23.964c-33.736,6.118-44.896-12.664-36.241-25.423
		c5.829-8.572,19.206-2.872,18.758,1.468c-0.081,0.141,12.599-19.72-9.234-24.004c-10.632-2.083-18.265,3.477-21.096,11.547
		c-1.641,4.69-2.053,9.093-4.925,9.217c-6.937,0.246-12.517-27.004-38.208-23.093c0,0,24.049,31.75,47.896,70.216
		c12.924-10.988,86.515-19.523,163.836-19.523C312.593,221.798,386.383,230.332,399.352,241.321"/>
	<path class="st1" d="M103.739,289.392c0,4.007,38.62,8.99,91.974,10.752l17.483-22.536
		C151.1,278.867,103.739,284.979,103.739,289.392"/>
	<path class="st1" d="M367.177,289.392c0-4.441-47.402-10.571-109.7-11.793l17.564,22.545
		C328.394,298.381,367.177,293.38,367.177,289.392"/>
	<path class="st1" d="M235.359,280.583l-0.127,0.134l-15.511,19.948c5.128,0.075,10.342,0.122,15.598,0.122
		c5.291,0,10.546-0.047,15.633-0.122l-15.47-19.948L235.359,280.583z"/>
	<path class="st1" d="M132.097,403.276l97.925-126.036l-8.7,0.152l-80.686,103.822l-24.913-1.393l-24.664,76.346l40.917-52.798
		C132.016,403.332,132.057,403.304,132.097,403.276"/>
	<polygon class="st1" points="103.454,450.882 165.092,415.683 152.579,387.401 	"/>
	<path class="st1" d="M338.777,403.36l40.917,52.807l-24.664-76.346l-24.954,1.393l-80.645-103.822l-8.701-0.134l97.884,126.017
		C338.656,403.304,338.737,403.332,338.777,403.36"/>
	<polygon class="st1" points="305.616,415.683 367.263,450.882 318.179,387.38 	"/>
</g>
<g>
</g>
<g>
</g>
<g>
</g>
<g>
</g>
<g>
</g>
<g>
</g>
<g>
</g>
<g>
</g>
<g>
</g>
<g>
</g>
<g>
</g>
<g>
</g>
<g>
</g>
<g>
</g>
<g>
</g>
</svg>
