<?xml version="1.0" encoding="utf-8"?>
<!-- Generator: Adobe Illustrator 22.0.1, SVG Export Plug-In . SVG Version: 6.00 Build 0)  -->
<svg version="1.1" id="svg--favicon-monochrome" xmlns="http://www.w3.org/2000/svg" xmlns:xlink="http://www.w3.org/1999/xlink"
	 x="0px" y="0px" viewBox="0 0 260 260" style="enable-background:new 0 0 260 260;" xml:space="preserve">
<style type="text/css">
	.st0{fill:#9E7C2C;}
</style>
<g>
	<path class="st0" d="M14.459,37.732c6.993,12.142,14.712,5,28.958,9.254C36.564,36.619,26.785,45.346,14.459,37.732z"/>
	<path class="st0" d="M2.855,22.789c6.996,12.125,14.738,4.994,28.985,9.247C24.959,21.671,15.183,30.39,2.855,22.789z"/>
	<path class="st0" d="M54.856,61.951c-6.853-10.354-16.633-1.635-28.938-9.233C32.867,64.845,40.61,57.719,54.856,61.951z"/>
	<path class="st0" d="M71.113,229.907c0.023-0.021,0.046-0.037,0.069-0.053l55.814-71.836l-4.959,0.087l-45.988,59.175l-14.2-0.794
		L47.791,260L71.113,229.907z"/>
	<path class="st0" d="M37.615,39.502c-6.877-10.355-16.633-1.635-28.958-9.248C15.626,42.397,23.392,35.265,37.615,39.502z"/>
	<path class="st0" d="M49.242,54.463c-6.903-10.361-16.656-1.646-28.984-9.26C27.254,57.351,34.997,50.208,49.242,54.463z"/>
	<path class="st0" d="M205.146,61.951c14.223-4.232,21.966,2.894,28.958-9.233C221.779,60.316,212.023,51.597,205.146,61.951z"/>
	<path class="st0" d="M153.194,117.926c0.982,0.663,2.76,1.035,4,1.035L239.417,13.53c0.49-0.826,0.255-1.966-0.608-2.564
		c-0.889-0.588-2.155-0.4-2.786,0.414c0,0-4.629,5.961-11.694,15.053c5.333-8.314-4.866-14.108-1.332-26.433
		c-0.797,0.771-1.451,1.518-2.036,2.241L197.803,32.08c-6.691,8.492,1.66,13.287,1.941,25.947
		C177.474,86.662,153.194,117.926,153.194,117.926z"/>
	<path class="st0" d="M239.719,45.204c-12.302,7.614-22.056-1.102-28.935,9.26C225.029,50.208,232.772,57.351,239.719,45.204z"/>
	<path class="st0" d="M245.567,37.732c-12.349,7.614-22.105-1.113-28.982,9.254C230.831,42.731,238.574,49.874,245.567,37.732z"/>
	<path class="st0" d="M102.808,118.962c1.24,0,2.995-0.372,4.001-1.035c0,0-24.283-31.264-46.55-59.9
		c0.281-12.66,8.632-17.455,1.964-25.947L39.017,2.241C38.458,1.518,37.804,0.771,37.007,0c3.557,12.326-6.691,18.119-1.332,26.433
		C28.609,17.341,23.978,11.38,23.978,11.38c-0.632-0.814-1.895-1.003-2.761-0.414c-0.912,0.599-1.098,1.738-0.655,2.564
		L102.808,118.962z"/>
	<path class="st0" d="M117.405,158.227c-35.392,0.718-62.386,4.201-62.386,6.716c0,2.284,22.012,5.124,52.422,6.128L117.405,158.227
		z"/>
	<path class="st0" d="M229.007,110.686c-1.637-0.071-1.895-2.581-2.807-5.254c-1.614-4.599-5.964-7.769-12.048-6.581
		c-12.444,2.442-5.191,13.762-5.24,13.681c-0.258-2.474,7.369-5.723,10.692-0.837c4.913,7.272-1.428,17.977-20.656,14.49
		c-14.22-2.57-13.192-8.929-13.542-13.653v-0.021c3.297-0.762,5.753-3.515,5.753-6.798c0-3.876-3.415-7.013-7.601-7.013
		c-4.189,0-7.604,3.137-7.604,7.013c0,2.463,1.382,4.632,3.462,5.895l-0.023,0.087c-2.876,11.823-38.384,17.945-37.799-8.611
		c0.209-9.092,12.491-13.627,19.883-6.953c4.374-7.834-0.843-15.03-9.826-16.283c-8.398-1.161-10.504,4.552-13.496,1.754
		c-1.544-1.457,2.877-7.575,2.503-9.999c-1.286-7.472-10.692-14.409-10.692-14.409s-9.214,6.937-10.5,14.409
		c-0.377,2.424,4.163,8.671,2.479,9.999c-3.207,2.581-5.101-2.915-13.476-1.754c-8.983,1.253-14.2,8.449-9.826,16.283
		c7.392-6.674,19.674-2.139,19.883,6.953c0.608,26.557-34.946,20.434-37.799,8.611c-0.023-0.022-0.023-0.054-0.023-0.054
		c2.056-1.297,3.462-3.466,3.462-5.929c0-3.876-3.415-7.013-7.601-7.013c-4.189,0-7.604,3.137-7.604,7.013
		c0,3.283,2.456,6.036,5.73,6.798v0.016c-0.35,4.729,0.704,11.089-13.519,13.659c-19.228,3.487-25.589-7.218-20.656-14.49
		c3.322-4.886,10.947-1.637,10.691,0.837c-0.046,0.08,7.181-11.24-5.263-13.681c-6.06-1.187-10.411,1.982-12.024,6.581
		c-0.936,2.673-1.17,5.183-2.807,5.254c-3.954,0.14-7.134-15.391-21.777-13.162c0,0,13.707,18.096,27.299,40.021
		c7.366-6.263,49.311-11.127,93.381-11.127c44.044,0,86.102,4.865,93.494,11.127c13.568-21.924,27.252-40.021,27.252-40.021
		C236.141,95.295,232.984,110.827,229.007,110.686z"/>
	<polygon class="st0" points="54.856,256.987 89.988,236.925 82.856,220.805 	"/>
	<path class="st0" d="M228.187,32.036c14.246-4.253,21.966,2.878,28.958-9.247C244.82,30.39,235.066,21.671,228.187,32.036z"/>
	<path class="st0" d="M222.388,39.502c14.22-4.237,21.989,2.895,28.958-9.248C239.018,37.867,229.264,29.148,222.388,39.502z"/>
	<path class="st0" d="M39.324,141.248c3.928,6.56,8.256,14.178,11.694,20.899c3.253-4.379,40.235-7.672,78.996-7.672
		c34.946,0,75.039,3.224,79.016,7.461c3.462-6.715,7.928-14.128,11.882-20.688c-7.485-6.192-46.504-11.003-90.899-11.003
		C85.614,130.245,46.786,135.056,39.324,141.248z M65.568,152.159c-4.023,0-7.276-2.991-7.276-6.688
		c0-3.688,3.253-6.679,7.276-6.679c3.977,0,7.204,2.991,7.204,6.679C72.773,149.168,69.546,152.159,65.568,152.159z
		 M194.434,138.792c4.023,0,7.227,2.991,7.227,6.679c0,3.697-3.204,6.688-7.227,6.688c-4.001,0-7.227-2.991-7.227-6.688
		C187.207,141.783,190.434,138.792,194.434,138.792z M140.002,142.388c0,5.086-4.469,9.21-9.988,9.21
		c-5.498,0-9.967-4.124-9.967-9.21c0-5.081,4.47-9.199,9.967-9.199C135.533,133.188,140.002,137.307,140.002,142.388z"/>
	<path class="st0" d="M194.434,149.201c2.222,0,4.047-1.674,4.047-3.731c0-2.074-1.825-3.731-4.047-3.731s-4.024,1.657-4.024,3.731
		C190.411,147.527,192.213,149.201,194.434,149.201z"/>
	<path class="st0" d="M123.908,142.393c0,3.126,2.735,5.659,6.106,5.659c3.389,0,6.126-2.532,6.126-5.659
		c0-3.115-2.737-5.653-6.126-5.653C126.643,136.74,123.908,139.277,123.908,142.393z"/>
	<path class="st0" d="M65.545,141.74c-2.245,0-4.047,1.657-4.047,3.731c0,2.057,1.802,3.731,4.047,3.731
		c2.245,0,4.024-1.674,4.024-3.731C69.569,143.397,67.79,141.74,65.545,141.74z"/>
	<polygon class="st0" points="170.082,236.925 205.219,256.987 177.242,220.793 	"/>
	<path class="st0" d="M130.038,159.923l-0.072,0.076l-8.841,11.37c2.923,0.043,5.895,0.07,8.89,0.07c3.015,0,6.011-0.027,8.91-0.07
		l-8.817-11.37L130.038,159.923z"/>
	<path class="st0" d="M184.024,217.279l-45.965-59.175l-4.959-0.076l55.791,71.826c0.023,0.016,0.07,0.032,0.093,0.048L212.304,260
		l-14.058-43.515L184.024,217.279z"/>
	<path class="st0" d="M205.169,164.943c0-2.531-27.018-6.025-62.525-6.722l10.011,12.85
		C183.065,170.067,205.169,167.217,205.169,164.943z"/>
</g>
<g>
</g>
<g>
</g>
<g>
</g>
<g>
</g>
<g>
</g>
<g>
</g>
<g>
</g>
<g>
</g>
<g>
</g>
<g>
</g>
<g>
</g>
<g>
</g>
<g>
</g>
<g>
</g>
<g>
</g>
</svg>
