<svg id="Layer_1" data-name="Layer 1" xmlns="http://www.w3.org/2000/svg" viewBox="0 0 33 18"><defs><style>.cls-1{fill:#282828;}</style></defs><title>svg--trip-advisor</title><path id="svg-trip-advisor" class="cls-1" d="M32.748,3.015A.9.9,0,0,1,33,3.649a.871.871,0,0,1-.268.644.906.906,0,0,1-.637.264.886.886,0,0,1-.641-.276.9.9,0,0,1-.259-.632A.918.918,0,0,1,31.469,3a.907.907,0,0,1,1.279.018Zm-1.165.1a.747.747,0,0,0-.221.534.742.742,0,0,0,.733.741.753.753,0,0,0,.525-.213.743.743,0,0,0-.52-1.271A.715.715,0,0,0,31.583,3.115Zm.53.018c.285,0,.43.1.43.287a.273.273,0,0,1-.212.269l.221.437h-.3l-.185-.394h-.081v.394h-.271V3.133Zm-.127.437h.1c.118,0,.179-.043.179-.13S32.2,3.3,32.069,3.3h-.083ZM7.483,9.031a1.264,1.264,0,1,0,1.259,1.263A1.26,1.26,0,0,0,7.483,9.031Zm15.183,0a1.264,1.264,0,1,0,1.259,1.263A1.259,1.259,0,0,0,22.666,9.031Zm6.1-3.172a9.793,9.793,0,0,1,1.489-3.041l-5.055,0A18.361,18.361,0,0,0,15.1,0,18.786,18.786,0,0,0,4.743,2.85L0,2.854A9.843,9.843,0,0,1,1.482,5.867a7.578,7.578,0,0,0,12.007,9.246L15.1,17.536l1.629-2.443A7.586,7.586,0,0,0,28.764,5.859ZM22.442,2.794A7.535,7.535,0,0,0,15.8,7.208a7.644,7.644,0,0,0-.667,2.6,7.591,7.591,0,0,0-7.4-7.045A18.646,18.646,0,0,1,15.1,1.326,17.752,17.752,0,0,1,22.442,2.794ZM7.583,16.43a6.07,6.07,0,1,1,6.046-6.067A6.065,6.065,0,0,1,7.583,16.43Zm17.194-.344a6.046,6.046,0,0,1-7.767-3.593h0a6.05,6.05,0,1,1,7.767,3.594ZM7.487,6.54a3.756,3.756,0,1,0,3.738,3.754A3.755,3.755,0,0,0,7.487,6.54Zm0,6.218a2.462,2.462,0,1,1,2.448-2.464A2.463,2.463,0,0,1,7.487,12.758ZM22.666,6.54a3.756,3.756,0,1,0,3.74,3.754A3.752,3.752,0,0,0,22.666,6.54Zm0,6.218a2.462,2.462,0,1,1,2.452-2.464A2.462,2.462,0,0,1,22.666,12.758Z"/></svg>