<svg id="Layer_1" data-name="Layer 1" xmlns="http://www.w3.org/2000/svg" viewBox="0 0 29 20"><defs><style>.cls-1{fill:#282828;}</style></defs><title>svg--youtube</title><path id="svg--youtube" class="cls-1" d="M28.394,3.123A3.606,3.606,0,0,0,25.83.6C23.569,0,14.5,0,14.5,0S5.431,0,3.17.6A3.607,3.607,0,0,0,.606,3.123,36.643,36.643,0,0,0,0,10a36.643,36.643,0,0,0,.606,6.877A3.607,3.607,0,0,0,3.17,19.4c2.261.6,11.33.6,11.33.6s9.069,0,11.33-.6a3.606,3.606,0,0,0,2.564-2.526A36.643,36.643,0,0,0,29,10,36.643,36.643,0,0,0,28.394,3.123Zm-16.86,11.1V5.779L19.114,10Z"/></svg>