<svg id="Layer_1" data-name="Layer 1" xmlns="http://www.w3.org/2000/svg" viewBox="0 0 24 19"><defs><style>.cls-1{fill:#282828;}</style></defs><title>svg--twitter</title><path id="svg--twitter" class="cls-1" d="M7.548,19A13.726,13.726,0,0,0,21.558,5.353q0-.312-.014-.62A9.876,9.876,0,0,0,24,2.249,10.024,10.024,0,0,1,21.172,3,4.832,4.832,0,0,0,23.337.351a10.006,10.006,0,0,1-3.126,1.164A4.982,4.982,0,0,0,16.617,0a4.862,4.862,0,0,0-4.925,4.8A4.641,4.641,0,0,0,11.82,5.89,14.109,14.109,0,0,1,1.67.878,4.69,4.69,0,0,0,1,3.289,4.763,4.763,0,0,0,3.2,7.282a4.988,4.988,0,0,1-2.23-.6c0,.02,0,.04,0,.061a4.832,4.832,0,0,0,3.95,4.7,5.028,5.028,0,0,1-2.224.082,4.916,4.916,0,0,0,4.6,3.332,10.049,10.049,0,0,1-6.115,2.053A10.345,10.345,0,0,1,0,16.846,14.214,14.214,0,0,0,7.548,19"/></svg>