<svg xmlns="http://www.w3.org/2000/svg" viewBox="0 0 21 21">
	<path class="st0" d="M10.5,1.892c2.8,0,3.136,0.011,4.243,0.061c0.666,0.008,1.326,0.13,1.95,0.362
		C17.149,2.483,17.561,2.752,17.9,3.1c0.348,0.339,0.617,0.751,0.785,1.207c0.232,0.624,0.354,1.284,0.362,1.95
		c0.05,1.107,0.061,1.439,0.061,4.243s-0.011,3.136-0.061,4.243c-0.008,0.666-0.13,1.326-0.362,1.95
		c-0.353,0.916-1.076,1.639-1.992,1.992c-0.624,0.232-1.284,0.354-1.95,0.362c-1.107,0.05-1.439,0.061-4.243,0.061
		s-3.136-0.011-4.243-0.061c-0.666-0.008-1.326-0.13-1.95-0.362C3.851,18.517,3.439,18.248,3.1,17.9
		c-0.348-0.339-0.617-0.751-0.785-1.207c-0.232-0.624-0.354-1.284-0.362-1.95C1.9,13.636,1.892,13.3,1.892,10.5
		s0.011-3.136,0.061-4.243c0.008-0.666,0.13-1.326,0.362-1.95C2.483,3.851,2.752,3.439,3.1,3.1c0.339-0.348,0.751-0.617,1.207-0.785
		c0.624-0.232,1.284-0.354,1.95-0.362C7.364,1.9,7.7,1.892,10.5,1.892 M10.5,0C7.648,0,7.291,0.012,6.171,0.063
		C5.3,0.081,4.438,0.246,3.622,0.551c-0.7,0.264-1.335,0.677-1.86,1.211c-0.534,0.525-0.947,1.16-1.211,1.86
		C0.246,4.438,0.081,5.3,0.063,6.171C0.012,7.291,0,7.648,0,10.5s0.012,3.209,0.063,4.329c0.018,0.871,0.183,1.733,0.488,2.549
		c0.264,0.7,0.677,1.335,1.211,1.86c0.525,0.534,1.16,0.947,1.86,1.211c0.816,0.305,1.678,0.47,2.549,0.488
		C7.291,20.988,7.648,21,10.5,21s3.209-0.012,4.329-0.063c0.871-0.018,1.733-0.183,2.549-0.488c1.411-0.545,2.526-1.66,3.071-3.071
		c0.305-0.816,0.47-1.678,0.488-2.549C20.988,13.709,21,13.352,21,10.5s-0.012-3.209-0.063-4.329
		c-0.018-0.871-0.183-1.733-0.488-2.549c-0.264-0.7-0.677-1.335-1.211-1.86c-0.525-0.534-1.16-0.947-1.86-1.211
		c-0.816-0.305-1.678-0.47-2.549-0.488C13.709,0.012,13.352,0,10.5,0z"/>
	<path class="st0" d="M10.5,5.108c-2.978,0-5.392,2.414-5.392,5.392s2.414,5.392,5.392,5.392s5.392-2.414,5.392-5.392
		S13.478,5.108,10.5,5.108L10.5,5.108z M10.5,14C8.567,14,7,12.433,7,10.5S8.567,7,10.5,7S14,8.567,14,10.5S12.433,14,10.5,14z"/>
	<circle class="st0" cx="16.105" cy="4.895" r="1.26"/>
</svg>
